<svg width="68" height="48" viewBox="0 0 68 48" fill="none" xmlns="http://www.w3.org/2000/svg">
<path d="M26.3286 18.7697L34.4098 14.0947L42.491 18.7697V28.1198L34.4098 32.796L26.3286 28.1198V18.7697Z" fill="#2DD6FF"/>
<path d="M67.3243 1.89574C68.2171 3.00068 67.9022 4.64569 66.665 5.34056L56.008 11.3261L55.7038 11.4975L49.3032 15.0924L49.1004 14.9754L44.4453 12.2881L35.0503 6.8662L20.8021 15.0888V32.3507L34.069 40.0073L46.3901 32.8967C47.5955 32.2018 49.0992 33.0728 49.0992 34.466V37.671C49.0992 38.6093 48.5991 39.4755 47.7889 39.9435L40.8718 43.9354L36.4066 46.5128C35.2319 47.1912 33.786 47.1912 32.6113 46.5128L27.7062 43.6814L20.8021 39.6965L14.1987 35.8853L13.2528 35.3394L3.00982 41.091C2.4272 41.4183 1.6948 41.2765 1.27494 40.7577C0.0542691 39.2462 0.483567 36.9974 2.17599 36.046L8.40789 32.5433L14.1987 29.2888V13.1342C14.1987 11.9785 14.8143 10.9113 15.8133 10.3346L20.8009 7.45589L28.4339 3.05032L32.4604 0.725813C34.062 -0.198318 36.0339 -0.198318 37.6355 0.725813L41.662 3.05032L49.098 7.34127L51.1454 8.52302L55.7014 5.96216L64.2638 1.14888C65.238 0.601724 66.4645 0.836896 67.1674 1.70667L67.3243 1.89574Z" fill="#2DD6FF"/>
<path d="M3.25512 41.8055C5.05287 41.8055 6.51023 40.3452 6.51023 38.5439C6.51023 36.7425 5.05287 35.2822 3.25512 35.2822C1.45737 35.2822 0 36.7425 0 38.5439C0 40.3452 1.45737 41.8055 3.25512 41.8055Z" fill="#2DD6FF"/>
<path d="M64.6345 6.52328C66.4323 6.52328 67.8896 5.06299 67.8896 3.26164C67.8896 1.46028 66.4323 0 64.6345 0C62.8368 0 61.3794 1.46028 61.3794 3.26164C61.3794 5.06299 62.8368 6.52328 64.6345 6.52328Z" fill="#2DD6FF"/>
</svg>
